<?xml version="1.0" encoding="UTF-8"?>
<!DOCTYPE svg PUBLIC "-//W3C//DTD SVG 1.1//EN" "http://www.w3.org/Graphics/SVG/1.1/DTD/svg11.dtd">
<!-- Creator: CorelDRAW Home & Student 2018 -->
<svg xmlns="http://www.w3.org/2000/svg" xml:space="preserve" width="128px" height="128px" version="1.1" style="shape-rendering:geometricPrecision; text-rendering:geometricPrecision; image-rendering:optimizeQuality; fill-rule:evenodd; clip-rule:evenodd"
viewBox="0 0 128 128"
 xmlns:xlink="http://www.w3.org/1999/xlink">
 <defs>
  <style type="text/css">
   <![CDATA[
    .fil20 {fill:#338675}
    .fil9 {fill:#483627}
    .fil6 {fill:#5A5438}
    .fil5 {fill:#684618}
    .fil0 {fill:#69644A}
    .fil1 {fill:#7B7C7B}
    .fil4 {fill:#897537}
    .fil19 {fill:#948851}
    .fil11 {fill:#965927}
    .fil7 {fill:#966E54}
    .fil10 {fill:#9A3524}
    .fil2 {fill:#A8A798}
    .fil16 {fill:#AA5549}
    .fil8 {fill:#B5A556}
    .fil17 {fill:#C89827}
    .fil21 {fill:#C9994B}
    .fil3 {fill:#CBCBCB}
    .fil13 {fill:#D2AF50}
    .fil18 {fill:#D9A629}
    .fil12 {fill:#DDE1CC}
    .fil15 {fill:#E9B637}
    .fil14 {fill:#ECECEC}
   ]]>
  </style>
 </defs>
 <g id="Layer_x0020_1">
  <metadata id="CorelCorpID_0Corel-Layer"/>
  <path class="fil0" d="M29.35 41.752c-0.853,-0.316 -0.891,-0.135 -1.87,-0.304l-1.148 -0.405c-0.053,-0.035 -0.123,-0.096 -0.172,-0.136l-1.303 -2.313 -2.107 -0.24c-0.027,1.373 -0.429,3.891 3.175,4.209 4.952,0.438 8.306,1.522 12.28,1.383 2.041,-0.071 3.349,0.611 4.583,1.664 0.78,3.779 -1.923,1.635 -1.059,6.624 0.684,-0.302 0.451,-0.164 0.628,-0.115 0.059,0.017 0.713,0.483 0.786,0.536 0.866,0.639 0.955,0.75 2.123,0.964 -0.242,-2.207 -0.611,-1.496 -1.633,-2.646 0.006,-2.294 -0.091,-2.961 1.312,-3.942 1.184,-0.827 1.977,-1.611 3.753,-1.948 0.095,-2.325 1.095,-3.677 2.687,-4.521 3.276,-1.739 5.368,-1.524 8.362,-2.334 2.165,-0.586 0.911,-1.075 2.355,-2.457l0.326 -0.274c1.244,-0.888 3.156,-0.922 4.387,-0.176 1.298,0.786 0.992,0.993 1.733,1.7 2.54,2.424 3.405,0.179 10.736,4.117 1.979,1.063 0.68,0.038 2.009,2.054 0.051,0.078 0.212,0.282 0.262,0.359l0.233 0.379c0.034,0.059 0.07,0.145 0.104,0.206 0.401,0.71 0.65,1.21 1.789,2.037 2.854,2.074 1.439,-1.4 6.458,-2.116 5.914,-0.843 12.197,0.978 15.66,-3.726 0.822,-1.116 0.654,-2.236 -0.071,-3.19 -0.093,2.192 -0.207,2.21 -1.361,3.345 -0.745,0.731 -1.389,1.375 -2.604,1.767 -1.17,0.376 -4.734,0.446 -7.584,0.95 -1.597,-3.785 0.039,-5.744 -2.355,-9.919 -0.319,-0.556 -0.047,0.033 -0.298,-0.659 -0.542,-1.488 0.112,-0.787 -1.157,-1.973l-1.304 -1.541c-0.884,-1.261 -0.385,-1.354 -1.583,-2.2 -1.554,-1.097 -4.581,-3.392 -5.834,-4.894 -2.268,-2.719 -3.031,-0.827 -5.848,-2.968 -3.188,-2.423 -5.667,-1.399 -10.183,-1.603 -2.011,-0.091 -1.231,-0.644 -2.27,-1.41 -0.868,-0.64 -2.261,-0.329 -3.077,0.021 -0.603,1.704 1.011,2.055 -2.919,2.73 -4.322,0.743 -5.96,1.178 -8.622,3.587 -2.252,2.039 -1.704,1.125 -3.763,2.261l-3.223 3.083c-0.385,0.703 -0.345,1.521 -0.781,2.376 -1.48,2.909 -3.023,2.469 -3.433,5.473l-0.491 1.943c-0.569,1.236 -0.243,1.734 -0.299,3.197 -1.203,0.85 -1.407,1.831 -3.258,1.933 -1.374,0.077 -3.659,0 -4.131,-0.888z"/>
  <path class="fil1" d="M103.22 125.117c0.789,-1.545 0.764,-0.489 1.48,-2.156 -2.81,0.044 -4.012,-0.132 -6.499,0.632 -2.357,0.725 -2.971,-0.548 -4.676,-1.108 -2.113,-0.694 -1.972,0.633 -4.877,-0.797l-6.834 -2.597c-1.022,-0.283 -1.704,-0.126 -2.736,-0.484 -0.893,-0.309 -1.231,-0.742 -1.994,-1.154l-4.478 -1.805c-0.872,-0.274 -1.565,-0.259 -2.516,-0.638 -1.453,-0.577 -3.207,-1.443 -3.644,-2.967 0.718,-0.321 1.899,-0.551 2.825,-0.651l-4.367 -1.618c-1.089,-0.479 -0.654,-0.603 -2.061,-1.013 -1.477,-0.429 -3.65,-0.925 -4.742,-1.66l-6.489 -2.633c-1.511,-0.6 -3.282,-0.942 -4.861,-1.454 -1.861,-0.604 -2.376,-1.217 -4.431,-1.939 -2.332,-0.818 -7.845,-2.636 -5.888,-5.614 2.005,-0.414 2.73,0.507 4.536,0.707 -1.757,-3.051 -8.959,-1.997 -5.062,2.825 2.149,2.661 2.194,0.62 2.908,2.132 -6.424,-0.005 -4.991,-0.133 -5.389,3.815 -0.115,1.133 0.346,0.213 -0.518,0.988 -0.022,0.019 -1.061,0.687 -1.185,0.736 -6.564,2.626 -7.092,-5.418 -8.015,-6.173 -0.748,-0.611 -1.943,-0.465 -2.949,-0.793 -0.788,-0.257 -1.367,-0.779 -2.474,-1.005 -2.851,-0.58 -8.458,2.37 -9.212,-5.463 -0.329,-3.416 1.935,-4.106 3.654,-5.533 0.345,-0.287 0.641,-0.491 1.117,-0.791 2.965,-1.863 3.807,0.373 3.811,0.377 1.15,1.193 2.243,1.587 3.128,2.576 -1.302,0.198 -1.367,0.294 -2.226,0.53 -1.384,0.379 -3.067,-1.812 -6.571,0.627 0.21,5.219 4.016,3.467 4.708,3.415l1.088 -0.744c0.055,-0.062 0.107,-0.14 0.157,-0.207 0.05,-0.067 0.09,-0.153 0.136,-0.221l0.755 -1.151c0.015,-0.027 0.058,-0.103 0.07,-0.132 0.279,-0.646 -0.271,-0.797 0.853,-1.447 1.662,-0.959 6.222,0.731 6.619,0.956 1.418,0.805 1.068,0.745 0.932,2.552 -0.9,0.324 -0.417,0.436 -1.525,0.096 0.577,1.898 -0.628,0.786 0.06,2.711 1.787,0.957 0.467,1.142 1.789,2.515 -0.057,-1.218 -0.395,-2.114 -0.133,-3.176 0.153,-0.618 0.67,-1.31 0.977,-2.297 -0.649,-0.595 -0.437,0.963 -0.621,-1.175 0.978,-0.878 -0.627,0.766 0.401,-0.487l1.192 -1.389c0.818,-0.974 0.837,-0.993 1.72,-1.77 2.218,-1.95 0.911,-3.515 2.629,-4.449 0.069,-0.373 -0.017,-0.098 0.164,-0.636 0.014,-0.04 0.087,-0.099 0.098,-0.204 0.011,-0.107 0.075,-0.134 0.113,-0.2 -2.815,-0.02 -1.701,2.137 -2.81,3.81 -0.679,1.025 -2.505,2.545 -3.585,3.159 -2.618,0.122 -6.037,-1.353 -7.616,-2.636 -1.541,-1.251 -3.595,-4.02 -6.955,-1.635 -1.206,0.856 -2.035,0.811 -3.124,1.909 -3.604,3.632 -1.55,8.253 0.383,10.354 2.694,2.928 4.84,0.113 8.228,1.311 0.532,0.188 1.242,0.586 1.75,0.748 4.614,1.471 1.882,0.081 3.557,3.673 0.358,0.768 1.973,2.248 2.445,2.633 3.566,2.909 8.618,-2.295 12.358,0.864 -0.55,1.657 -3.752,2.697 -6.408,4.566 -1.993,1.403 -0.854,0.115 -4.402,2.887l-5.464 5.272 -0.015 2.342c2.155,1.386 1.3,1.734 4.578,2.141 4.593,0.57 7.699,0.195 12.042,-0.04l10.69 -2.145c1.066,-0.265 1.215,-0.73 1.948,-1.111 2.417,-1.256 3.85,-1.161 4.742,-1.62 0.269,-0.138 1.372,-1.007 1.816,-1.267 1.116,-0.653 3.117,-1.185 4.521,-1.853 2.483,-1.183 3.677,-0.02 5.1,0.839 4.831,2.92 5.019,1.999 8.784,3.814 2.023,0.975 7.096,2.445 9.559,3.021 1.905,0.444 3.786,0.346 5.553,0.736 4.969,1.097 9.318,-0.406 11.378,-0.231z"/>
  <path class="fil2" d="M56.486 4.01c1.796,-0.099 8.748,-1.048 9.694,-0.875 1.396,0.256 3.278,1.477 8.163,2.376 7.428,1.366 3.584,1.322 7.482,2.819 4.74,1.82 5.244,1.297 6.743,3.684 2.299,3.66 3.367,1.013 7.561,5.273l1.289 1.602c0.684,0.933 1.31,2.35 1.988,3.047 0.631,0.651 0.943,0.637 1.48,1.368 2.748,3.74 1.055,3.184 2.178,5.392 1.059,2.084 1.792,0.162 2.853,7.552l-0.045 0.587 -0.144 0.306c0.725,0.954 0.893,2.074 0.071,3.19 -3.463,4.704 -9.746,2.883 -15.66,3.726 -5.019,0.716 -3.604,4.19 -6.458,2.116 -1.139,-0.827 -1.388,-1.327 -1.789,-2.037 -0.034,-0.061 -0.07,-0.147 -0.104,-0.206l-0.233 -0.379c-0.05,-0.077 -0.211,-0.281 -0.262,-0.359 -1.329,-2.016 -0.03,-0.991 -2.009,-2.054 -7.331,-3.938 -8.196,-1.693 -10.736,-4.117 -0.741,-0.707 -0.435,-0.914 -1.733,-1.7 -1.231,-0.746 -3.143,-0.712 -4.387,0.176l-0.326 0.274c-1.444,1.382 -0.19,1.871 -2.355,2.457 -2.994,0.81 -5.086,0.595 -8.362,2.334 -1.592,0.844 -2.592,2.196 -2.687,4.521 -1.776,0.337 -2.569,1.121 -3.753,1.948 -1.403,0.981 -1.306,1.648 -1.312,3.942 1.022,1.15 1.391,0.439 1.633,2.646l0.272 0.091c0.349,-0.19 0.443,-0.411 1.01,-0.275 1.586,0.378 -0.85,0.186 0.705,0.592 1.342,-0.98 2.506,-0.474 4.071,-1.369 2.48,-1.42 0.666,-0.648 4.053,-1.572l8.976 -1.722c3.432,-0.073 7.163,0.646 9.512,1.592 2.623,1.056 7.903,0.508 9.366,1.03 1.378,-0.113 4.019,0 4.723,1.122 1.222,1.949 -1.158,1.665 2.408,3.469 4.469,2.26 -0.592,4.351 -0.518,7.959 0.031,1.536 0.339,3.827 0.461,5.67 0.142,2.154 0.895,3.318 0.903,5.362 0.019,4.819 -0.227,7.539 4.772,8.16 -0.525,-0.818 0.042,-0.246 -0.795,-0.791 -2.814,-1.83 -3.024,0.609 -3.215,-7.678 -0.021,-0.924 -1.116,-5.736 -1.337,-10.413 -0.149,-3.184 4.816,-6.019 0.881,-8.54 -4.035,-2.586 -1.807,-0.613 -2.769,-6.194 -0.186,-1.08 -0.525,-1.214 -0.708,-2.566 -0.185,-1.859 0.02,-2.236 4.731,-2.273l6.651 -0.873c2.424,-0.412 3.827,-0.039 5.588,-1.697 3.07,-2.889 3.338,-3.951 1.918,-7.819 -0.417,-1.137 -0.317,-1.975 -0.654,-3.113 -0.676,-2.284 -2.402,-1.909 -2.642,-4.784 -0.315,-3.773 -1.032,-2.875 -3.192,-6.082 -0.322,-0.478 -0.37,-0.696 -0.724,-1.178 -0.555,-0.759 -1.136,-1.132 -1.679,-1.884 -1.392,-0.621 -2.295,-2.662 -4.032,-3.398 -2.416,-1.024 -2.411,-0.327 -4.388,-2.962 -1.461,-1.947 -3.038,-1.955 -6.978,-3.602 -0.811,-0.339 -1.884,-0.663 -2.652,-1.206 -2.529,-1.791 -7.633,-1.903 -11.19,-3.332 -3.369,-1.354 -4.732,-0.844 -9.407,-0.424l-2.242 0.511c-1.252,0.788 0.283,-0.447 -0.659,0.58z"/>
  <path class="fil3" d="M88.037 47.546c0.183,1.352 0.522,1.486 0.708,2.566 0.962,5.581 -1.266,3.608 2.769,6.194 3.935,2.521 -1.03,5.356 -0.881,8.54 0.221,4.677 1.316,9.489 1.337,10.413 0.191,8.287 0.401,5.848 3.215,7.678 0.837,0.545 0.27,-0.027 0.795,0.791 0.649,0.595 1.047,1.178 1.384,2.344 0.574,1.987 0.654,1.291 1.194,2.466l1.624 1.153c2.314,1.524 3.755,0.323 6.359,-0.54 3.542,-1.173 3.239,-4.101 7.058,-3.797 2.292,0.182 1.685,0.869 3.467,1.571 7.34,2.896 2.876,12.222 -0.079,12.847 -2.112,0.447 -3.322,-0.34 -4.977,-0.27 -1.275,0.055 -2.255,0.927 -4.039,1.356 -4.084,0.984 -0.615,2.347 -4.862,5.641 -3.76,2.916 -6.426,0.007 -8.738,0.053 -1.793,0.034 -3.267,0.225 -4.086,1.214 0.327,1.093 0.967,1.579 2.238,1.84 3.552,0.838 7.921,4.299 10.16,6.858 1.085,1.239 1.373,0.906 2.351,1.776 1.539,1.368 3.276,3.75 1.301,5.289 -0.753,0.588 -1.919,1.389 -3.115,1.588 -2.06,-0.175 -6.409,1.328 -11.378,0.231 -1.767,-0.39 -3.648,-0.292 -5.553,-0.736 -2.463,-0.576 -7.536,-2.046 -9.559,-3.021 -3.765,-1.815 -3.953,-0.894 -8.784,-3.814 -1.423,-0.859 -2.617,-2.022 -5.1,-0.839 -1.404,0.668 -3.405,1.2 -4.521,1.853 -0.444,0.26 -1.547,1.129 -1.816,1.267 -0.892,0.459 -2.325,0.364 -4.742,1.62 -0.733,0.381 -0.882,0.846 -1.948,1.111l-10.69 2.145c-4.343,0.235 -7.449,0.61 -12.042,0.04 -3.278,-0.407 -2.423,-0.755 -4.578,-2.141l0.015 -2.342 5.464 -5.272c3.548,-2.772 2.409,-1.484 4.402,-2.887 2.656,-1.869 5.858,-2.909 6.408,-4.566 -3.74,-3.159 -8.792,2.045 -12.358,-0.864 -0.472,-0.385 -2.087,-1.865 -2.445,-2.633 -1.675,-3.592 1.057,-2.202 -3.557,-3.673 -0.508,-0.162 -1.218,-0.56 -1.75,-0.748 -3.388,-1.198 -5.534,1.617 -8.228,-1.311 -1.933,-2.101 -3.987,-6.722 -0.383,-10.354 1.089,-1.098 1.918,-1.053 3.124,-1.909 3.36,-2.385 5.414,0.384 6.955,1.635 1.579,1.283 4.998,2.758 7.616,2.636 1.08,-0.614 2.906,-2.134 3.585,-3.159 1.109,-1.673 -0.005,-3.83 2.81,-3.81l1.85 -1.303c2.944,-1.767 2.102,-11.755 2.318,-13.6 0.199,-1.709 1.064,-2.908 0.368,-5.241 -0.502,-1.682 -1.964,-2.555 -1.691,-4.489 0.242,-1.705 1.745,-2.168 2.638,-3.351 1.293,-1.712 0.292,-3.706 0.749,-5.723 0.395,-1.741 1.98,-0.934 1.807,-3.944 -2.669,-2.061 -5.122,-1.374 -10.215,-1.983 -4.488,-0.536 -8.158,-0.056 -9.668,-2.63 -0.653,-1.112 -0.878,-3.821 -0.756,-5.509 0.176,-2.412 1.653,-1.701 2.16,-3.794 0.275,-1.135 -0.043,-1.67 0.43,-2.712 0.123,-0.27 0.906,-1.561 1.195,-1.931 0.848,-1.085 2.013,-1.77 2.988,-2.987 1.09,-1.36 1.083,-2.951 2.001,-4.358l2.743 -2.469c0.061,-0.037 0.142,-0.083 0.201,-0.121 2.66,-1.657 1.714,-2.276 3.126,-3.571 1.632,-1.496 1.935,0.246 5.755,-3.39 2.875,-2.736 4.201,-2.208 5.778,-3.354 2.014,-1.461 1.043,-1.11 4.002,-1.979 0.94,-0.277 3.811,-1.015 4.54,-1.127 0.942,-1.027 -0.593,0.208 0.659,-0.58l2.242 -0.511c4.675,-0.42 6.038,-0.93 9.407,0.424 3.557,1.429 8.661,1.541 11.19,3.332 0.768,0.543 1.841,0.867 2.652,1.206 3.94,1.647 5.517,1.655 6.978,3.602 1.977,2.635 1.972,1.938 4.388,2.962 1.737,0.736 2.64,2.777 4.032,3.398 -0.637,-3.582 -4.501,-4.393 -5.795,-5.119l-1.554 -1.65c-0.059,-0.071 -0.23,-0.277 -0.288,-0.348 -0.613,-0.751 -0.929,-1.215 -1.784,-1.549l-0.725 -0.261c-2.384,-1.039 -5.433,-1.612 -7.446,-3.348 -0.69,-0.596 -0.741,-0.706 -1.873,-0.877l-6.843 -1.408c-6.559,-1.978 -4.052,-1.53 -12.102,-1.067 -2.261,0.13 -2.671,0.624 -4.434,1.048 -2.213,0.534 -2.361,-0.042 -4.84,0.934 -0.88,0.346 -1.218,0.15 -2.11,0.465 -1.366,0.481 -0.229,0.086 -1.167,1.511 -0.595,0.904 -0.621,0.674 -1.629,0.969 -2.693,0.787 -3.148,2.218 -4.952,3.292 -1.497,0.891 -2.534,1.266 -4.313,1.325l-1.061 1.728c-0.039,0.059 -0.097,0.132 -0.137,0.189 -0.055,0.077 -0.226,0.279 -0.28,0.353 -1.709,2.366 -1.534,2.255 -3.882,3.763 -0.806,0.517 -1.187,1.313 -1.672,2.331 -0.455,0.957 -0.842,2.536 -1.448,3.334l-4.272 4.277c-0.604,0.565 -0.273,0.387 -1.059,0.837l-1.836 5.975c-1.206,2.173 0.248,2.997 0.509,5.057 0.24,1.886 0.661,3.457 2.774,4.327 1.233,0.508 2.054,0.623 3.63,0.672 2.362,0.075 2.348,0.127 4.144,0.616 2.329,0.633 5.73,0.592 8.539,0.686 -0.162,1.969 -0.559,1.167 -0.821,2.584 -0.66,3.557 0.949,4.922 -2.141,7.491 -3.925,3.263 -0.497,5.339 0.424,8.283l-0.111 12.229 -1.072 2.7c-0.451,1.323 -0.692,1.679 -1.621,2.188 -1.683,0.92 -3.439,1.374 -3.993,3.502 -0.51,1.957 0.091,1.345 -1.234,2.593l-1.787 1.939c-6.243,0.411 -7.119,-3.693 -9.715,-4.802 -2.455,-1.048 -3.936,0.075 -5.883,0.929 -3.667,1.609 -6.178,5.06 -4.776,9.348 0.341,1.04 1.657,4.005 2.547,4.831 1.608,1.494 3.679,1.124 6.163,1.04 2.272,-0.077 3.45,0.579 5.331,1.302 1.117,0.429 0.834,1.442 1.189,2.379l1.63 2.097c0.044,0.05 0.105,0.122 0.148,0.173l1.247 1.258c1.501,1.177 3.203,1.139 5.29,1.029 1.66,-0.088 1.674,-0.73 3.145,-0.711l1.338 0.425c-0.313,0.709 -5.348,3.74 -6.238,4.256l-1.989 1.821c-0.569,0.641 -0.261,0.279 -0.797,0.694 -2.835,2.197 -5.448,3.502 -5.093,7.944 3.057,1.714 1.684,1.614 6.031,2.608 5.702,1.303 17.595,-0.066 23.248,-2.391 1.1,-0.453 2.176,-1.226 2.912,-1.504 1.841,-0.696 1.563,-0.164 3.28,-1.145 1.07,-0.611 1.66,-1.044 3.014,-1.443 2.293,-0.676 3.888,-3.045 6.355,-1.565 1.828,1.096 0.174,0.735 2.787,1.508 1.715,0.508 2.497,1.89 4.327,2.258l3.069 1.093c1.93,0.422 2.86,1.615 8.513,2.55 1.29,0.213 2.616,0.714 3.565,0.857 5.191,0.783 15.35,1.386 18.934,-2.336 1.777,-1.846 0.228,-4.165 -1.218,-5.845 -0.793,-0.92 -1.51,-0.89 -2.425,-1.993 -3.184,-3.835 -5.544,-3.792 -9.094,-6.359 -1.248,-0.902 -0.731,0.081 -0.902,-1.341 1.858,-0.873 7.065,2.453 9.855,-0.554 0.463,-0.499 0.778,-0.964 1.308,-1.543 1.457,-1.592 1.758,-3.334 2.333,-3.95 0.805,-0.863 1.107,-0.4 2.32,-0.842 2.412,-0.877 1.105,-1.241 4.818,-0.714 5.004,0.71 5.281,-1.756 7.134,-4.975 0.775,-1.346 0.888,-3.737 0.442,-5.554 -0.385,-1.572 -1.462,-2.627 -2.578,-3.351 -0.297,-0.192 -0.787,-0.452 -1.011,-0.588 -8.843,-5.356 -7.377,0.582 -13.259,2.199 -0.914,0.251 -1.617,0.749 -2.292,0.885 -1.65,0.334 -3.293,-1.492 -3.75,-2.415 -1.326,-2.675 -0.841,-4.109 -3.944,-5.429 -0.994,-0.423 -0.179,-0.006 -1.031,-0.524 -1.743,-1.058 -1.059,-2.249 -1.047,-5.456 0.01,-2.738 -0.548,-2.225 -0.893,-4.102 -0.391,-2.126 -0.555,-7.929 0.368,-9.422 1.444,-2.333 2.143,-4.832 -0.799,-6.527 -2.674,-1.54 -1.821,-4.283 -1.632,-7.501 -0.941,-0.103 -1.362,-0.239 -2.01,-0.47z"/>
  <path class="fil2" d="M58.782 86.84c-4.693,0.135 2.625,8.237 -5.876,9.709 -4.266,0.739 -2.574,-0.191 -3.601,2.134 -5.704,0.147 -2.018,-3.051 -4.81,-3.852 -0.712,0.619 -0.193,0.084 -0.743,1.15l-2.784 0.187c-1.806,-0.2 -2.531,-1.121 -4.536,-0.707 -1.957,2.978 3.556,4.796 5.888,5.614 2.055,0.722 2.57,1.335 4.431,1.939 1.579,0.512 3.35,0.854 4.861,1.454l6.489 2.633c1.092,0.735 3.265,1.231 4.742,1.66 1.407,0.41 0.972,0.534 2.061,1.013l4.367 1.618c-0.926,0.1 -2.107,0.33 -2.825,0.651 0.437,1.524 2.191,2.39 3.644,2.967 0.951,0.379 1.644,0.364 2.516,0.638l4.478 1.805c0.763,0.412 1.101,0.845 1.994,1.154 1.032,0.358 1.714,0.201 2.736,0.484l6.834 2.597c2.905,1.43 2.764,0.103 4.877,0.797 1.705,0.56 2.319,1.833 4.676,1.108 2.487,-0.764 3.689,-0.588 6.499,-0.632 -0.716,1.667 -0.691,0.611 -1.48,2.156 1.196,-0.199 2.362,-1 3.115,-1.588 1.975,-1.539 0.238,-3.921 -1.301,-5.289 -0.978,-0.87 -1.266,-0.537 -2.351,-1.776 -2.239,-2.559 -6.608,-6.02 -10.16,-6.858l1.109 1.077c0.35,0.23 0.784,0.401 1.244,0.642 0.132,0.069 1.027,0.557 1.159,0.689 0.756,0.756 0.475,0.186 0.79,1.4 -1.852,0.038 -5.751,-1.239 -7.05,-2.019 -3.103,-1.863 -2.576,-0.818 -6.191,-1.973 -4.095,-1.308 -4.441,-1.032 -4.058,-5.127 0.655,-0.361 1.242,-0.419 1.807,-0.72l1.273 -1.171c-1.74,0.132 -3.552,0.961 -5.128,1.716 -2.079,0.996 -3.65,0.256 -4.197,2.699 0.285,1.688 3.51,1.475 4.36,1.518l8.529 2.439c2.305,0.552 5.751,2.37 7.756,3.191 2.168,0.887 1.256,-0.124 2.91,1.119 0.978,0.734 -0.171,0.075 0.983,0.664 1.918,0.979 5.662,3.401 5.246,5.898 -0.575,0.157 -1.845,0.177 -2.299,0.239 -3.167,0.433 -4.032,1.914 -6.241,-0.498 -0.413,-0.45 -3.361,-0.375 -4.125,-0.419 1.873,-0.082 1.068,0.099 1.256,-1.365 -1.063,-0.018 -3.245,0.146 -4.137,-0.064 -0.398,-0.094 -0.838,-0.336 -1.201,-0.594l-0.806 -0.905c-1.107,-0.022 -2.094,-0.094 -2.925,-0.462 -4.22,-1.866 -1.496,-1.188 -3.534,-3.655 -0.198,-0.24 -0.231,-0.282 -0.498,-0.484 -0.387,-0.292 -0.121,-0.107 -0.626,-0.362l-3.799 -1.58c-0.073,-0.033 -0.158,-0.064 -0.233,-0.094l-16.993 -6.05c-0.727,-0.29 -0.598,-0.318 -1.25,-0.573l-2.655 -1.135c-0.301,-0.09 -1.38,-0.258 -1.638,-0.306 -3.059,-0.568 -8.39,-2.859 -11.103,-4.243 -1.749,-0.892 -1.568,-0.038 -2.134,-2.097 4.959,-0.184 2.95,1.267 7.278,2.613 3.63,1.128 3.876,1.378 7.276,2.867 2.443,1.07 4.92,1.628 7.689,2.468 2.944,0.892 7.545,1.079 9.062,0.703 1.91,-0.473 -0.962,-0.748 3.184,-1.756 0.751,-0.183 0.448,-0.06 1.235,-0.424l3.169 -1.498c0.099,-0.038 0.397,-0.161 0.492,-0.207 0.541,-0.261 0.493,-0.264 0.744,-0.43 -0.749,0.057 -1.636,0.051 -2.314,0.229l-2.895 1.403c-4.208,1.589 -3.991,2.818 -8.684,2.167l-5.446 -1.607c-2.864,-1.444 -6.274,-0.966 -6.892,-2.561 -0.998,-2.579 6.423,0.43 7.024,0.511 2.238,0.305 4.885,1.381 7.637,0.812 0.659,-0.137 1.724,-0.753 3.411,-0.994 1.716,-0.244 7.043,-1.592 8.015,-2.854 1.574,-2.043 -1.185,-0.175 -5.313,-3.82 -2.341,-2.066 -0.45,-3.957 -1.207,-6.507 -0.444,-1.495 -4.117,-1.752 -5.636,-1.956 -3.031,-0.406 -4.842,0.832 -7.171,0.68z"/>
  <path class="fil4" d="M41.729 52.234c0.925,3.203 -2.836,4.635 -3.487,6.596 -0.553,1.667 0.76,2.645 1.068,3.804 0.173,0.652 0.347,12.952 0.045,14.256 -0.275,1.184 0.075,-0.023 -0.403,0.953 -0.847,1.724 -0.707,6.025 -4.785,5.733 -0.038,0.066 -0.102,0.093 -0.113,0.2 -0.011,0.105 -0.084,0.164 -0.098,0.204 -0.181,0.538 -0.095,0.263 -0.164,0.636l1.464 0.209c-0.032,0.086 -0.102,0.116 -0.127,0.292 -0.024,0.171 -0.093,0.222 -0.124,0.305 -0.591,1.553 -0.773,2.203 0.719,3.404 0.201,-0.934 -0.211,-0.776 -0.024,-2.03 0.164,-1.098 0.252,0.036 0.592,-1.733l0.926 -0.192c-0.273,-3.036 2,-3.716 2.469,-4.308 0.386,-0.489 0.24,-0.761 0.54,-1.391 0.805,1.89 0.985,1.194 1.464,3.935 0.094,0.539 0.813,3.286 1.088,4.02l4.156 5.872c3.468,4.209 10.672,1.025 6.881,-3.691l-2.857 -2.204c-0.027,-0.07 -0.072,-0.165 -0.092,-0.208 -0.02,-0.043 -0.068,-0.156 -0.093,-0.209 -0.026,-0.054 -0.069,-0.15 -0.099,-0.209 -2.422,-4.913 -3.91,-3.639 -2.366,-10.653 0.453,-2.059 1.506,-4.397 0.278,-6.227 -1.663,-2.479 -0.13,-2.95 -2.515,-4.649 -2.852,0.807 -0.895,2.917 -4.733,3.129l-0.42 -0.648c-0.262,-0.276 -0.502,-0.062 -0.723,-1.587 -0.179,-1.235 -0.055,-2.996 0.079,-4.24 1.684,0.065 1.495,0.46 3.047,0.293 6.519,-0.701 4,-1.849 8.051,-2.701 1.589,-1.353 12.266,-1.683 15.839,-1.788 3.109,-0.091 5.571,0.525 8.02,0.908 5.207,0.814 2.875,0.066 5.962,2.448 2.354,-0.245 2.914,0.171 3.804,0.821 1.601,1.167 1.711,0.436 3.96,0.434l0.043 6.205c0.097,0.747 0.096,1.542 0.195,2.286 0.106,0.797 0.394,1.64 0.507,2.342 0.274,1.694 0.126,3.663 0.401,5.351 0.364,2.235 1.839,8.066 3.694,7.173 -2.24,-0.047 -2.063,-0.304 -3.734,0.936 -0.099,2.13 -0.299,2.72 0.183,4.416 2.03,-0.092 1.89,-0.401 3.206,-1.485 1.336,-1.102 0.476,-1.113 1.887,-1.934l0.268 -2.486c0.457,0.49 0.294,0.114 0.585,0.984 0.709,2.116 -0.629,0.954 2.533,3.945 0.663,0.627 0.862,1.074 1.001,1.93 -0.849,0.424 -1.232,0.369 -1.791,1.132 -0.975,1.333 -1.873,5.923 0.157,7.699 0.944,0.826 3.597,1.515 4.723,0.664 1.173,-0.888 0.466,-0.487 0.652,-2.782l0.165 -0.59c0.653,-1.261 0.249,-1.131 2.221,-0.949 -2.04,-0.161 -2.178,-1.802 -2.449,-2.295 -0.453,-0.828 0.135,-0.107 -0.594,-0.654 -0.922,-0.691 -0.459,0.072 -1.64,-1.736l2.638 -0.838c-2.808,0.089 -5.188,-0.253 -5.251,-2.794 -0.54,-1.175 -0.62,-0.479 -1.194,-2.466 -0.337,-1.166 -0.735,-1.749 -1.384,-2.344 -4.999,-0.621 -4.753,-3.341 -4.772,-8.16 -0.008,-2.044 -0.761,-3.208 -0.903,-5.362 -0.122,-1.843 -0.43,-4.134 -0.461,-5.67 -0.074,-3.608 4.987,-5.699 0.518,-7.959 -3.566,-1.804 -1.186,-1.52 -2.408,-3.469 -0.704,-1.122 -3.345,-1.235 -4.723,-1.122 0.11,3.486 2.59,1.209 2.512,5.226 -1.117,0.117 -1.877,0.036 -2.879,0.309 -2.741,0.747 -1.811,-0.274 -4.613,-0.54l-7.492 -1.34c-2.202,-0.642 -8.391,-0.345 -10.566,0.303 -1.575,0.47 -3.784,0.405 -5.384,0.609 -4.002,0.51 -2.523,0.78 -4.54,1.407 -1.698,0.527 -3.606,0.264 -5.125,0.896 -0.011,-0.958 -0.269,-2.388 -0.247,-2.88 0.071,-1.529 0.397,-0.17 0.641,-2.266l-0.272 -0.091c-1.168,-0.214 -1.257,-0.325 -2.123,-0.964 -0.073,-0.053 -0.727,-0.519 -0.786,-0.536 -0.177,-0.049 0.056,-0.187 -0.628,0.115z"/>
  <path class="fil5" d="M50.959 87.104l2.857 2.204c3.791,4.716 -3.413,7.9 -6.881,3.691l-4.156 -5.872c-0.275,-0.734 -0.994,-3.481 -1.088,-4.02 -0.479,-2.741 -0.659,-2.045 -1.464,-3.935 -0.3,0.63 -0.154,0.902 -0.54,1.391 -0.469,0.592 -2.742,1.272 -2.469,4.308l3.121 -0.125c0.475,5.199 1.44,3.335 1.264,4.991 -0.08,0.753 0.012,0.305 -0.264,0.741 -2.552,1.24 -4.272,-0.519 -5.615,-1.652 -0.484,1.354 -0.569,0.255 0.457,1.406 0.653,0.732 1.599,1.411 2.614,1.607 1.837,0.354 0.208,-0.404 2.564,0.527 0.74,0.292 1.575,0.721 1.653,-0.489 0.178,0.163 0.314,0.53 1.362,1.002 2.23,1.004 2.047,0.504 4.323,2.151 2.511,1.816 7.907,0.154 8.102,-3.367 0.129,-2.315 -2.714,-3.172 0.645,-5.64 0.983,-0.723 1.426,-0.567 2.546,-0.912l0.886 -0.361c-0.954,-0.067 -1.408,0.054 -2.033,-0.363 -1.083,-0.067 -0.964,0.099 -1.603,-0.354 -2.219,-1.571 -1.317,-0.79 -3.566,-1.852 -0.328,-4.773 -0.894,-10.006 4.072,-10.041 2.155,2.558 0.946,3.286 1.691,4.277 1.179,1.566 2.564,0.343 3.211,-0.235 0.171,-0.152 0.169,-0.175 0.429,-0.361 0.037,-0.027 0.127,-0.08 0.164,-0.104 0.034,-0.023 0.124,-0.067 0.157,-0.089 1.424,-0.919 0.388,-0.8 1.919,-1.305 0.326,0.74 0.335,0.777 0.531,1.55 0.171,0.674 0.157,0.949 0.352,1.388 0.839,0.187 0.7,0.134 1.772,-0.31l0.398 -0.174c1.088,-0.431 1.724,-0.398 2.623,-1.193 0.088,-1.885 0.047,-3.037 0.672,-4.393 2.823,-0.147 1.808,0.249 2.358,0.737 1.26,1.121 -0.367,0.318 2.33,0.539 3.625,0.296 0.401,7.396 -0.724,9.323 -1.967,3.37 -1.707,0.289 -2.27,2.993 0.113,2.011 1.027,2.585 0.124,4.352 -2.204,4.31 1.963,5.211 2.013,5.246 0.893,-0.675 0.447,0.228 0.762,-0.91 -1.407,-1.088 -1.597,-2.28 -0.891,-4.108 0.436,-1.13 1.411,-1.631 2.503,-2.111 2.215,-0.974 1.447,-0.627 2.638,-2.507 0.679,-1.07 0.93,-2.029 1.682,-3.002 4.681,-6.057 -7.218,-9.223 0.46,-12.832 0.068,-0.967 -0.337,-4.522 1.915,-4.136 1.026,0.176 1.862,3.934 4.436,3.448l-0.043 -6.205c-2.249,0.002 -2.359,0.733 -3.96,-0.434 -0.89,-0.65 -1.45,-1.066 -3.804,-0.821l0.384 0.754c0.185,0.482 0.128,0.211 0.241,0.826 0.072,0.392 0.085,1.144 0.084,1.558 -0.017,3.806 -0.317,3.554 -1.576,4.275l-2.315 1.511c-2.319,1.22 -2.784,-0.764 -3.357,-1.231 -0.532,-0.433 -0.637,-0.343 -1.301,-0.606 -4.611,-1.829 -4.813,-0.166 -8.442,-1.018l-6.219 -0.687c-1.468,1.682 -1.18,1.266 -3.332,2.326 -2.339,1.153 -1.046,1.307 -4.633,1.178 -0.814,-1.316 -1.605,-1.571 -1.822,-3.56 -0.091,-0.841 0.001,-1.575 -0.194,-2.341 -0.235,-0.926 -0.515,-0.168 -0.42,-2.052 1.607,-0.966 2.666,-1.046 3.081,-2.501 -4.051,0.852 -1.532,2 -8.051,2.701 -1.552,0.167 -1.363,-0.228 -3.047,-0.293 -0.134,1.244 -0.258,3.005 -0.079,4.24 0.221,1.525 0.461,1.311 0.723,1.587l0.42 0.648c3.838,-0.212 1.881,-2.322 4.733,-3.129 2.385,1.699 0.852,2.17 2.515,4.649 1.228,1.83 0.175,4.168 -0.278,6.227 -1.544,7.014 -0.056,5.74 2.366,10.653 0.03,0.059 0.073,0.155 0.099,0.209 0.025,0.053 0.073,0.166 0.093,0.209 0.02,0.043 0.065,0.138 0.092,0.208z"/>
  <path class="fil6" d="M58.843 84.387c0.625,0.417 1.079,0.296 2.033,0.363l-0.886 0.361c-1.12,0.345 -1.563,0.189 -2.546,0.912 -3.359,2.468 -0.516,3.325 -0.645,5.64 -0.195,3.521 -5.591,5.183 -8.102,3.367 -2.276,-1.647 -2.093,-1.147 -4.323,-2.151 -1.048,-0.472 -1.184,-0.839 -1.362,-1.002 -0.078,1.21 -0.913,0.781 -1.653,0.489 -2.356,-0.931 -0.727,-0.173 -2.564,-0.527 -1.015,-0.196 -1.961,-0.875 -2.614,-1.607 -1.026,-1.151 -0.941,-0.052 -0.457,-1.406 -1.492,-1.201 -1.31,-1.851 -0.719,-3.404 0.031,-0.083 0.1,-0.134 0.124,-0.305 0.025,-0.176 0.095,-0.206 0.127,-0.292l-1.464 -0.209c-1.718,0.934 -0.411,2.499 -2.629,4.449 -0.883,0.777 -0.902,0.796 -1.72,1.77l-1.192 1.389c-1.028,1.253 0.577,-0.391 -0.401,0.487 0.184,2.138 -0.028,0.58 0.621,1.175 4.007,-3.423 3.772,1.573 4.216,2.358 0.297,0.524 -0.022,-0.575 0.532,0.794 -0.271,1.317 -0.825,2.341 -1.73,3.09 -1.188,0.982 -1.859,0.732 -3.697,0.678l-0.165 -1.447c-1.322,-1.373 -0.002,-1.558 -1.789,-2.515 -1.463,0.238 -0.087,-0.075 -1.021,0.41 -0.646,0.336 0.338,0.071 -0.831,0.462 -1.434,-0.706 -2.885,-0.743 -4.218,-1.484 -0.569,-0.316 -2.757,-1.743 -3.075,-1.801 -0.692,0.052 -4.498,1.804 -4.708,-3.415 3.504,-2.439 5.187,-0.248 6.571,-0.627 0.859,-0.236 0.924,-0.332 2.226,-0.53 -0.885,-0.989 -1.978,-1.383 -3.128,-2.576 -0.004,-0.004 -0.846,-2.24 -3.811,-0.377 -0.476,0.3 -0.772,0.504 -1.117,0.791 -1.719,1.427 -3.983,2.117 -3.654,5.533 0.754,7.833 6.361,4.883 9.212,5.463 1.107,0.226 1.686,0.748 2.474,1.005 1.006,0.328 2.201,0.182 2.949,0.793 0.923,0.755 1.451,8.799 8.015,6.173 0.124,-0.049 1.163,-0.717 1.185,-0.736 0.864,-0.775 0.403,0.145 0.518,-0.988 0.398,-3.948 -1.035,-3.82 5.389,-3.815 -0.714,-1.512 -0.759,0.529 -2.908,-2.132 -3.897,-4.822 3.305,-5.876 5.062,-2.825l2.784 -0.187c0.55,-1.066 0.031,-0.531 0.743,-1.15 2.792,0.801 -0.894,3.999 4.81,3.852 1.027,-2.325 -0.665,-1.395 3.601,-2.134 8.501,-1.472 1.183,-9.574 5.876,-9.709 0.087,-0.111 -0.045,-0.737 2.168,-1.018 2.556,-0.325 7.051,0.018 9.732,0.034 0.708,1.114 1.621,1.388 1.775,1.717 0.149,1.832 -0.558,4.197 0.199,5.679 0.811,1.58 -0.076,0.168 1.486,1.322 0.571,0.422 0.887,0.879 1.304,1.175 1.63,1.157 3.114,0.063 4.173,0.912 0.001,0.001 1.729,2.924 3.406,1.043 0.904,-1.014 -0.729,-0.287 0.816,-3.287l1.671 0.053 0.773 1.529c0.041,0.067 0.106,0.176 0.173,0.253 2.207,-0.204 8.527,-3.991 9.04,0.227 0.182,1.495 -0.415,1.287 -0.804,2.26l-0.316 1.421c4.577,1.923 2.243,4.044 1.96,5.594 0.432,0.217 3.871,3.242 7.25,-0.728 1.274,-1.497 0.736,-2.099 1.509,-3.562 0.804,-1.521 1.923,-1.182 3.644,-1.799 1.529,-0.549 1.655,-1.249 3.889,-1.157 1.61,0.065 3.768,0.659 5.119,-0.147 1.25,-0.745 3.122,-5.38 2.185,-7.702 -0.809,-0.768 -0.422,-0.545 -1.684,-0.699l-0.053 3.52c-1.014,0.796 -2.023,1.556 -3.696,0.724l-1.895 0.292c0.662,-0.201 0.3,-0.144 0.932,0.679l-0.983 1.132c-1.42,-0.5 0.465,-0.488 -1.493,-0.46 -2.298,0.033 -0.457,1.754 -5.208,1.008 -1.972,-0.182 -1.568,-0.312 -2.221,0.949l-0.165 0.59c-0.186,2.295 0.521,1.894 -0.652,2.782 -1.126,0.851 -3.779,0.162 -4.723,-0.664 -2.03,-1.776 -1.132,-6.366 -0.157,-7.699 0.559,-0.763 0.942,-0.708 1.791,-1.132 -0.139,-0.856 -0.338,-1.303 -1.001,-1.93 -3.162,-2.991 -1.824,-1.829 -2.533,-3.945 -0.291,-0.87 -0.128,-0.494 -0.585,-0.984l-0.268 2.486c-0.03,1.221 -0.237,1.674 -0.864,2.274 -0.571,0.547 -2.545,1.981 -3.376,2.153 -0.769,0.159 -1.549,0.282 -2.433,0.306 -0.565,-1.432 -0.073,-0.472 -0.773,-1.121 -0.65,0.502 -0.84,0.47 -1.635,0.697 -1.566,0.447 -1.149,-0.337 -1.616,1.118 0.11,-0.95 0.274,-0.789 -0.078,-1.113 -2.033,4.111 -8.991,3.574 -8.307,1.849 -0.315,1.138 0.131,0.235 -0.762,0.91 -0.05,-0.035 -4.217,-0.936 -2.013,-5.246 0.903,-1.767 -0.011,-2.341 -0.124,-4.352 -4.459,0.554 -3.239,-1.109 -7.176,-0.467 -2.435,0.397 -3.93,-0.239 -6.089,-0.352 -1.064,-0.056 -0.745,-0.163 -1.251,0.423z"/>
  <path class="fil7" d="M56.486 4.01c-0.729,0.112 -3.6,0.85 -4.54,1.127 -2.959,0.869 -1.988,0.518 -4.002,1.979 -1.577,1.146 -2.903,0.618 -5.778,3.354 -3.82,3.636 -4.123,1.894 -5.755,3.39 -1.412,1.295 -0.466,1.914 -3.126,3.571 -0.059,0.038 -0.14,0.084 -0.201,0.121l-2.743 2.469c-0.918,1.407 -0.911,2.998 -2.001,4.358 -0.975,1.217 -2.14,1.902 -2.988,2.987 -0.289,0.37 -1.072,1.661 -1.195,1.931 -0.473,1.042 -0.155,1.577 -0.43,2.712 -0.507,2.093 -1.984,1.382 -2.16,3.794 -0.122,1.688 0.103,4.397 0.756,5.509 1.51,2.574 5.18,2.094 9.668,2.63 5.093,0.609 7.546,-0.078 10.215,1.983 0.173,3.01 -1.412,2.203 -1.807,3.944 -0.457,2.017 0.544,4.011 -0.749,5.723 -0.893,1.183 -2.396,1.646 -2.638,3.351 -0.273,1.934 1.189,2.807 1.691,4.489 0.696,2.333 -0.169,3.532 -0.368,5.241 -0.216,1.845 0.626,11.833 -2.318,13.6l-1.85 1.303c4.078,0.292 3.938,-4.009 4.785,-5.733 0.478,-0.976 0.128,0.231 0.403,-0.953 0.302,-1.304 0.128,-13.604 -0.045,-14.256 -0.308,-1.159 -1.621,-2.137 -1.068,-3.804 0.651,-1.961 4.412,-3.393 3.487,-6.596 -0.864,-4.989 1.839,-2.845 1.059,-6.624 -1.234,-1.053 -2.542,-1.735 -4.583,-1.664 -3.974,0.139 -7.328,-0.945 -12.28,-1.383 -3.604,-0.318 -3.202,-2.836 -3.175,-4.209l2.107 0.24c-0.149,0.523 -0.554,-0.418 0.952,1.04 1.039,1.007 0.285,0.941 2.608,0.658l1.515 -6.664c0.181,-1.633 0.576,-1.734 1.006,-3.073 0.232,-0.723 0.118,-0.824 0.484,-1.464 0.371,-0.649 0.52,-0.401 0.954,-1.255 0.433,-0.851 0.106,-0.948 0.967,-1.897l3.322 -3.91c0.941,-1.479 1.413,-2.39 3.19,-3.168l4.082 -1.903c0.727,-0.401 0.699,-0.33 1.357,-0.84 1.588,-1.233 2.077,-3.512 4.041,-4.155 0.613,-0.201 0.87,-0.155 1.519,-0.375 0.551,-0.187 1.016,-0.392 1.639,-0.557l1.953 -0.891c3.022,-1.528 6.324,-0.717 7.157,-2.392 -1.28,-1.203 -1.943,-1.007 -3.605,-0.464 -1.805,0.591 -2.151,0.297 -4.251,0.32 3.258,-0.604 1.565,0.853 3.974,-0.829l1.903 -0.537c4.32,-0.029 4.32,1.259 6.923,0.372l1.163 0.005c1.029,0.237 1.152,0.206 2.341,0.268l0.284 0.6c0.428,0.717 0.061,0.502 0.739,0.657 1.234,-0.737 1.396,-0.09 5.231,0.507 2.533,0.395 7.487,1.819 9.082,3.039 0.035,0.027 0.625,0.582 0.817,0.749l2.621 1.756c2.969,1.438 1.123,0.621 3.633,2.738 1.43,1.205 1.047,1.23 1.913,2.15 0.065,0.07 0.266,0.253 0.336,0.315 3.091,2.784 1.34,1.946 3.143,4.096 1.541,1.837 1.823,1.981 2.174,3.821 -0.134,-0.431 -0.521,0.038 0.322,-0.349 0.133,-0.062 0.641,-0.125 0.788,-0.153 0.528,5.003 1.026,2.398 2.743,6.168 0.744,1.634 0.336,0.506 0.673,0.643 0.117,0.669 0.123,1.14 0.414,1.666 0.83,1.505 0.108,0.345 0.953,0.962 -1.061,-7.39 -1.794,-5.468 -2.853,-7.552 -1.123,-2.208 0.57,-1.652 -2.178,-5.392 -0.537,-0.731 -0.849,-0.717 -1.48,-1.368 -0.678,-0.697 -1.304,-2.114 -1.988,-3.047l-1.289 -1.602c-4.194,-4.26 -5.262,-1.613 -7.561,-5.273 -1.499,-2.387 -2.003,-1.864 -6.743,-3.684 -3.898,-1.497 -0.054,-1.453 -7.482,-2.819 -4.885,-0.899 -6.767,-2.12 -8.163,-2.376 -0.946,-0.173 -7.898,0.776 -9.694,0.875z"/>
  <path class="fil5" d="M29.35 41.752c0.472,0.888 2.757,0.965 4.131,0.888 1.851,-0.102 2.055,-1.083 3.258,-1.933 0.056,-1.463 -0.27,-1.961 0.299,-3.197l0.491 -1.943c0.41,-3.004 1.953,-2.564 3.433,-5.473 0.436,-0.855 0.396,-1.673 0.781,-2.376l3.223 -3.083c2.059,-1.136 1.511,-0.222 3.763,-2.261 2.662,-2.409 4.3,-2.844 8.622,-3.587 3.93,-0.675 2.316,-1.026 2.919,-2.73 0.816,-0.35 2.209,-0.661 3.077,-0.021 1.039,0.766 0.259,1.319 2.27,1.41 4.516,0.204 6.995,-0.82 10.183,1.603 2.817,2.141 3.58,0.249 5.848,2.968 1.253,1.502 4.28,3.797 5.834,4.894 1.198,0.846 0.699,0.939 1.583,2.2l1.304 1.541c1.269,1.186 0.615,0.485 1.157,1.973 0.251,0.692 -0.021,0.103 0.298,0.659 2.394,4.175 0.758,6.134 2.355,9.919 2.85,-0.504 6.414,-0.574 7.584,-0.95 1.215,-0.392 1.859,-1.036 2.604,-1.767 1.154,-1.135 1.268,-1.153 1.361,-3.345l0.144 -0.306c-1.691,0.166 -1.155,0.599 -2.05,1.839 -0.597,0.827 -1.074,0.914 -1.903,1.526 -3.515,-1.778 -1.169,-0.79 -3.157,-7.142 -1.014,-0.2 -1.515,0.093 -2.174,-2.094 -0.628,-2.082 -1.12,-1.992 -2.87,-4.638 -3.959,-5.984 -0.459,-2.794 -6.54,-6.645l-0.891 -0.731c-0.046,-0.059 -0.099,-0.133 -0.14,-0.197 -0.362,-0.561 -0.788,-1.938 -1.145,-2.611 -2.833,-0.258 -4.055,-0.646 -7.378,-0.639 -0.004,0.019 0.635,1.54 -1.614,0.514 -1.829,-0.833 -2.087,-0.261 -3.035,-1.092 -0.994,-0.87 0.011,-1.053 -2.33,-1.151l0.42 -1.122c-1.365,-0.079 -2.832,0.06 -4.029,-0.281 -5.318,-1.514 -1.738,0.873 -6.889,-0.019 -1.746,-0.302 -3.567,-0.361 -5.099,0.048 -0.493,0.131 -0.017,-0.05 -0.639,0.262l-4.049 1.691c-2.384,1.023 -0.286,1.023 -3.211,3.316l-5.17 4.241c-1.814,1.231 -2.642,2.614 -4.08,4.17 -2.258,2.442 -2.055,4.119 -2.733,5.52 -0.683,1.409 -1.205,0.943 -1.434,2.648 -0.287,2.131 0.211,2.22 0.548,3.474 -0.452,1.12 -0.116,-0.181 -0.819,1.319 -0.216,0.461 -0.459,1.366 -0.61,1.58 -0.745,1.059 -2.273,0.462 -3.501,1.131z"/>
  <path class="fil8" d="M55.555 20.149c-0.883,1.018 -2.022,1.091 -3.182,1.714 -0.661,0.354 -2.428,1.842 -2.643,2.486 -1.298,-0.036 -1.564,0.596 -3.418,2.252 -4.154,3.711 -1.16,0.3 -4.779,5.931 -0.392,0.61 -4.602,8.754 -1.138,8.921 2.598,0.125 0.008,-0.145 2.564,-2.047 2.512,-1.871 1.566,-2.873 3.34,-4.978 1.6,-1.897 1.791,-3.409 4.065,-4.492 1.497,-0.713 3.931,-2.198 5.634,-2.551 2.233,-0.462 4.885,-2.365 6.192,0.477 2.753,3.306 4.513,2.992 6.284,-0.646 5.212,-0.015 11.742,2.417 13.642,6.401 0.789,1.655 0.082,0.501 1.057,1.367 1.205,1.07 2.008,3.379 2.671,4.997 0.933,2.279 3.556,3.685 6.185,2.358 0.011,-4.182 -1.514,-8.311 -3.736,-11.499 -2.171,-3.115 -0.028,-0.892 -3.194,-4.392l-4.46 -3.419c-1.869,-1.301 -2.224,-1.706 -4.824,-2.699 -5.74,-2.194 -11.198,-1.969 -17.163,-0.953 -1.392,0.238 -2.221,0.653 -3.097,0.772z"/>
  <path class="fil1" d="M98.558 88.538c0.063,2.541 2.443,2.883 5.251,2.794 1.925,-0.422 1.977,-0.865 3.321,-1.278 1.432,-0.439 2.471,-0.417 2.523,-1.693 1.545,-1.64 2.828,-3.403 5.628,-1.525 1.14,0.764 1.687,0.921 2.589,1.826 0.971,0.974 1.65,0.985 2.064,1.997 0.937,2.322 -0.935,6.957 -2.185,7.702 -1.351,0.806 -3.509,0.212 -5.119,0.147 -2.234,-0.092 -2.36,0.608 -3.889,1.157 -1.721,0.617 -2.84,0.278 -3.644,1.799 -0.773,1.463 -0.235,2.065 -1.509,3.562 -3.379,3.97 -6.818,0.945 -7.25,0.728 0.283,-1.55 2.617,-3.671 -1.96,-5.594l0.316 -1.421c0.389,-0.973 0.986,-0.765 0.804,-2.26 -0.513,-4.218 -6.833,-0.431 -9.04,-0.227 -0.067,-0.077 -0.132,-0.186 -0.173,-0.253l-0.773 -1.529 -1.671 -0.053c-1.545,3 0.088,2.273 -0.816,3.287 -1.677,1.881 -3.405,-1.042 -3.406,-1.043 -1.059,-0.849 -2.543,0.245 -4.173,-0.912 -0.417,-0.296 -0.733,-0.753 -1.304,-1.175 -1.562,-1.154 -0.675,0.258 -1.486,-1.322 -0.757,-1.482 -0.05,-3.847 -0.199,-5.679 -0.154,-0.329 -1.067,-0.603 -1.775,-1.717 -2.681,-0.016 -7.176,-0.359 -9.732,-0.034 -2.213,0.281 -2.081,0.907 -2.168,1.018 2.329,0.152 4.14,-1.086 7.171,-0.68 1.519,0.204 5.192,0.461 5.636,1.956 0.757,2.55 -1.134,4.441 1.207,6.507 4.128,3.645 6.887,1.777 5.313,3.82 -0.972,1.262 -6.299,2.61 -8.015,2.854 -1.687,0.241 -2.752,0.857 -3.411,0.994 -2.752,0.569 -5.399,-0.507 -7.637,-0.812 -0.601,-0.081 -8.022,-3.09 -7.024,-0.511 0.618,1.595 4.028,1.117 6.892,2.561l5.446 1.607c4.693,0.651 4.476,-0.578 8.684,-2.167l2.895 -1.403c0.678,-0.178 1.565,-0.172 2.314,-0.229 2.379,-1.059 2.936,-0.817 6.596,-2.736 3.519,-1.846 3.137,-1.604 7.707,-1.668 -0.051,0.111 -0.572,1.302 -0.647,1.424 -0.789,1.296 -1.169,0.698 -3.88,1.882 -1.727,0.754 -3.583,1.616 -5.423,2.165l-1.273 1.171c-0.565,0.301 -1.152,0.359 -1.807,0.72 -0.383,4.095 -0.037,3.819 4.058,5.127 3.615,1.155 3.088,0.11 6.191,1.973 1.299,0.78 5.198,2.057 7.05,2.019 -0.315,-1.214 -0.034,-0.644 -0.79,-1.4 -0.132,-0.132 -1.027,-0.62 -1.159,-0.689 -0.46,-0.241 -0.894,-0.412 -1.244,-0.642l-1.109 -1.077c-1.271,-0.261 -1.911,-0.747 -2.238,-1.84 0.819,-0.989 2.293,-1.18 4.086,-1.214 2.312,-0.046 4.978,2.863 8.738,-0.053 4.247,-3.294 0.778,-4.657 4.862,-5.641 1.784,-0.429 2.764,-1.301 4.039,-1.356 1.655,-0.07 2.865,0.717 4.977,0.27 2.955,-0.625 7.419,-9.951 0.079,-12.847 -1.782,-0.702 -1.175,-1.389 -3.467,-1.571 -3.819,-0.304 -3.516,2.624 -7.058,3.797 -2.604,0.863 -4.045,2.064 -6.359,0.54l-1.624 -1.153z"/>
  <path class="fil3" d="M78.253 101.337c-0.251,0.166 -0.203,0.169 -0.744,0.43 -0.095,0.046 -0.393,0.169 -0.492,0.207l-3.169 1.498c-0.787,0.364 -0.484,0.241 -1.235,0.424 -4.146,1.008 -1.274,1.283 -3.184,1.756 -1.517,0.376 -6.118,0.189 -9.062,-0.703 -2.769,-0.84 -5.246,-1.398 -7.689,-2.468 -3.4,-1.489 -3.646,-1.739 -7.276,-2.867 -4.328,-1.346 -2.319,-2.797 -7.278,-2.613 0.566,2.059 0.385,1.205 2.134,2.097 2.713,1.384 8.044,3.675 11.103,4.243 0.258,0.048 1.337,0.216 1.638,0.306l2.655 1.135c0.652,0.255 0.523,0.283 1.25,0.573l16.993 6.05c0.075,0.03 0.16,0.061 0.233,0.094l3.799 1.58c0.505,0.255 0.239,0.07 0.626,0.362 0.267,0.202 0.3,0.244 0.498,0.484 2.038,2.467 -0.686,1.789 3.534,3.655 0.831,0.368 1.818,0.44 2.925,0.462l0.806 0.905c0.363,0.258 0.803,0.5 1.201,0.594 0.892,0.21 3.074,0.046 4.137,0.064 -0.188,1.464 0.617,1.283 -1.256,1.365 0.764,0.044 3.712,-0.031 4.125,0.419 2.209,2.412 3.074,0.931 6.241,0.498 0.454,-0.062 1.724,-0.082 2.299,-0.239 0.416,-2.497 -3.328,-4.919 -5.246,-5.898 -1.154,-0.589 -0.005,0.07 -0.983,-0.664 -1.654,-1.243 -0.742,-0.232 -2.91,-1.119 -2.005,-0.821 -5.451,-2.639 -7.756,-3.191l-8.529 -2.439c-0.85,-0.043 -4.075,0.17 -4.36,-1.518 0.547,-2.443 2.118,-1.703 4.197,-2.699 1.576,-0.755 3.388,-1.584 5.128,-1.716 1.84,-0.549 3.696,-1.411 5.423,-2.165 2.711,-1.184 3.091,-0.586 3.88,-1.882 0.075,-0.122 0.596,-1.313 0.647,-1.424 -4.57,0.064 -4.188,-0.178 -7.707,1.668 -3.66,1.919 -4.217,1.677 -6.596,2.736z"/>
  <path class="fil9" d="M51.373 59.195c-0.415,1.455 -1.474,1.535 -3.081,2.501 -0.095,1.884 0.185,1.126 0.42,2.052 0.195,0.766 0.103,1.5 0.194,2.341 0.217,1.989 1.008,2.244 1.822,3.56 3.587,0.129 2.294,-0.025 4.633,-1.178 2.152,-1.06 1.864,-0.644 3.332,-2.326l6.219 0.687c3.629,0.852 3.831,-0.811 8.442,1.018 0.664,0.263 0.769,0.173 1.301,0.606 0.573,0.467 1.038,2.451 3.357,1.231l2.315 -1.511c1.259,-0.721 1.559,-0.469 1.576,-4.275 0.001,-0.414 -0.012,-1.166 -0.084,-1.558 -0.113,-0.615 -0.056,-0.344 -0.241,-0.826l-0.384 -0.754c-3.087,-2.382 -0.755,-1.634 -5.962,-2.448 -2.449,-0.383 -4.911,-0.999 -8.02,-0.908 -3.573,0.105 -14.25,0.435 -15.839,1.788z"/>
  <path class="fil10" d="M24.857 38.594l1.303 2.313c0.049,0.04 0.119,0.101 0.172,0.136l1.148 0.405c0.979,0.169 1.017,-0.012 1.87,0.304 1.228,-0.669 2.756,-0.072 3.501,-1.131 0.151,-0.214 0.394,-1.119 0.61,-1.58 0.703,-1.5 0.367,-0.199 0.819,-1.319 -0.337,-1.254 -0.835,-1.343 -0.548,-3.474 0.229,-1.705 0.751,-1.239 1.434,-2.648 0.678,-1.401 0.475,-3.078 2.733,-5.52 1.438,-1.556 2.266,-2.939 4.08,-4.17l5.17 -4.241c2.925,-2.293 0.827,-2.293 3.211,-3.316l4.049 -1.691c0.622,-0.312 0.146,-0.131 0.639,-0.262 1.532,-0.409 3.353,-0.35 5.099,-0.048 5.151,0.892 1.571,-1.495 6.889,0.019 1.197,0.341 2.664,0.202 4.029,0.281l-0.42 1.122c2.341,0.098 1.336,0.281 2.33,1.151 0.948,0.831 1.206,0.259 3.035,1.092 2.249,1.026 1.61,-0.495 1.614,-0.514 3.323,-0.007 4.545,0.381 7.378,0.639 0.357,0.673 0.783,2.05 1.145,2.611 0.041,0.064 0.094,0.138 0.14,0.197l0.891 0.731c6.081,3.851 2.581,0.661 6.54,6.645 1.75,2.646 2.242,2.556 2.87,4.638 0.659,2.187 1.16,1.894 2.174,2.094 -0.449,-1.581 0.115,0.494 0.207,-0.729l-0.573 -2.061c-0.034,-0.069 -0.08,-0.147 -0.117,-0.213 -0.691,-1.284 -0.021,0.227 -0.552,-0.984 -2.472,-5.653 -3.09,-5.015 -5.681,-7.658 -2.767,-2.823 -0.737,-0.177 -3.132,-2.846l-2.07 -2.013c-0.442,-0.507 -0.201,-0.317 -0.82,-0.813 -1.627,-1.304 -1.95,-0.435 -3.448,-1.588 -1.376,-1.059 -0.249,-0.678 -2.396,-0.872 -4.524,-0.409 -2.344,-0.911 -4.299,-2.233 -0.845,-0.572 -1.775,-0.429 -2.903,-0.672 -1.059,-0.228 -0.827,-0.415 -1.842,-1.049l-0.062 -1.187c-0.678,-0.155 -0.311,0.06 -0.739,-0.657l-0.284 -0.6c-1.189,-0.062 -1.312,-0.031 -2.341,-0.268l-1.163 -0.005c-2.603,0.887 -2.603,-0.401 -6.923,-0.372l-1.903 0.537c-2.409,1.682 -0.716,0.225 -3.974,0.829 2.1,-0.023 2.446,0.271 4.251,-0.32 1.662,-0.543 2.325,-0.739 3.605,0.464 -0.833,1.675 -4.135,0.864 -7.157,2.392l-1.953 0.891c-0.623,0.165 -1.088,0.37 -1.639,0.557 -0.649,0.22 -0.906,0.174 -1.519,0.375 -1.964,0.643 -2.453,2.922 -4.041,4.155 -0.658,0.51 -0.63,0.439 -1.357,0.84l-4.082 1.903c-1.777,0.778 -2.249,1.689 -3.19,3.168l-3.322 3.91c-0.861,0.949 -0.534,1.046 -0.967,1.897 -0.434,0.854 -0.583,0.606 -0.954,1.255 -0.366,0.64 -0.252,0.741 -0.484,1.464 -0.43,1.339 -0.825,1.44 -1.006,3.073l-1.515 6.664c-2.323,0.283 -1.569,0.349 -2.608,-0.658 -1.506,-1.458 -1.101,-0.517 -0.952,-1.04z"/>
  <path class="fil11" d="M76.258 93.471c-0.684,1.725 6.274,2.262 8.307,-1.849 0.352,0.324 0.188,0.163 0.078,1.113 0.467,-1.455 0.05,-0.671 1.616,-1.118 0.795,-0.227 0.985,-0.195 1.635,-0.697 0.7,0.649 0.208,-0.311 0.773,1.121 0.884,-0.024 1.664,-0.147 2.433,-0.306 0.831,-0.172 2.805,-1.606 3.376,-2.153 0.627,-0.6 0.834,-1.053 0.864,-2.274 -1.411,0.821 -0.551,0.832 -1.887,1.934 -1.316,1.084 -1.176,1.393 -3.206,1.485 -0.482,-1.696 -0.282,-2.286 -0.183,-4.416 1.671,-1.24 1.494,-0.983 3.734,-0.936 -1.855,0.893 -3.33,-4.938 -3.694,-7.173 -0.275,-1.688 -0.127,-3.657 -0.401,-5.351 -0.113,-0.702 -0.401,-1.545 -0.507,-2.342 -0.099,-0.744 -0.098,-1.539 -0.195,-2.286 -2.574,0.486 -3.41,-3.272 -4.436,-3.448 -2.252,-0.386 -1.847,3.169 -1.915,4.136 -7.678,3.609 4.221,6.775 -0.46,12.832 -0.752,0.973 -1.003,1.932 -1.682,3.002 -1.191,1.88 -0.423,1.533 -2.638,2.507 -1.092,0.48 -2.067,0.981 -2.503,2.111 -0.706,1.828 -0.516,3.02 0.891,4.108z"/>
  <path class="fil12" d="M54.779 42.139c0.434,0.324 0.06,0.197 0.796,0.388 1.614,0.418 2.372,-0.214 3.022,-0.396 2.37,-0.666 10.774,0.065 13.348,0.123 0.507,0.606 0.659,0.684 0.969,1.463 -2.121,0.137 -4.211,0.011 -6.334,-0.052 -2.566,-0.077 -3.775,0.368 -5.994,0.363 -11.557,-0.024 -6.319,-0.902 -10.933,2.303 -1.069,0.742 -1.929,1.087 -2.999,1.803 -0.06,1.586 0.134,1.564 1.209,2.326 0.819,0.581 0.992,0.891 1.68,1.724l7.211 -2.241c2.107,-1.014 5.453,-1.361 8.241,-1.354 3.26,0.009 5.919,0.239 8.822,0.805 1.327,0.258 6.56,2.507 7.593,2.039 0.063,-0.065 0.151,-0.261 0.181,-0.203l1.133 -1.205c0.287,-0.412 0.351,-0.12 0.424,-0.965 0.173,-1.981 0.159,-0.556 -0.436,-1.245 -0.885,-1.025 -1.994,-0.702 -3.143,-2.569 -1.821,-2.961 -0.713,-0.489 -2.245,-2.487 -1.855,-2.417 -4.075,-2.736 -6.637,-2.991 -2.187,-0.219 -0.81,-1.078 -7.593,-0.835 -2.184,0.078 -2.799,0.742 -4.524,1.113 -0.949,0.203 -1.48,0.23 -2.33,0.493 -1.566,0.485 -1.345,0.317 -1.461,1.6z"/>
  <path class="fil11" d="M58.843 84.387c0.506,-0.586 0.187,-0.479 1.251,-0.423 2.159,0.113 3.654,0.749 6.089,0.352 3.937,-0.642 2.717,1.021 7.176,0.467 0.563,-2.704 0.303,0.377 2.27,-2.993 1.125,-1.927 4.349,-9.027 0.724,-9.323 -2.697,-0.221 -1.07,0.582 -2.33,-0.539 -0.55,-0.488 0.465,-0.884 -2.358,-0.737 -0.625,1.356 -0.584,2.508 -0.672,4.393 -0.899,0.795 -1.535,0.762 -2.623,1.193l-0.398 0.174c-1.072,0.444 -0.933,0.497 -1.772,0.31 -0.195,-0.439 -0.181,-0.714 -0.352,-1.388 -0.196,-0.773 -0.205,-0.81 -0.531,-1.55 -1.531,0.505 -0.495,0.386 -1.919,1.305 -0.033,0.022 -0.123,0.066 -0.157,0.089 -0.037,0.024 -0.127,0.077 -0.164,0.104 -0.26,0.186 -0.258,0.209 -0.429,0.361 -0.647,0.578 -2.032,1.801 -3.211,0.235 -0.745,-0.991 0.464,-1.719 -1.691,-4.277 -4.966,0.035 -4.4,5.268 -4.072,10.041 2.249,1.062 1.347,0.281 3.566,1.852 0.639,0.453 0.52,0.287 1.603,0.354z"/>
  <path class="fil13" d="M45.538 53.71c-0.244,2.096 -0.57,0.737 -0.641,2.266 -0.022,0.492 0.236,1.922 0.247,2.88 1.519,-0.632 3.427,-0.369 5.125,-0.896 2.017,-0.627 0.538,-0.897 4.54,-1.407 1.6,-0.204 3.809,-0.139 5.384,-0.609 2.175,-0.648 8.364,-0.945 10.566,-0.303l7.492 1.34c2.802,0.266 1.872,1.287 4.613,0.54 1.002,-0.273 1.762,-0.192 2.879,-0.309 0.078,-4.017 -2.402,-1.74 -2.512,-5.226 -1.463,-0.522 -6.743,0.026 -9.366,-1.03 -2.349,-0.946 -6.08,-1.665 -9.512,-1.592l-8.976 1.722c-3.387,0.924 -1.573,0.152 -4.053,1.572 -1.565,0.895 -2.729,0.389 -4.071,1.369 -1.555,-0.406 0.881,-0.214 -0.705,-0.592 -0.567,-0.136 -0.661,0.085 -1.01,0.275z"/>
  <path class="fil14" d="M58.739 87.9c-0.343,2.81 0.527,4.544 -0.903,6.692 -1.942,2.919 -3.159,1.791 -3.935,3.708 0.061,0.054 0.162,0.045 0.193,0.145 0.289,0.918 8.853,2.886 10.597,2.857 3.062,-0.051 9.232,-1.435 10.706,-3.002 -0.441,-3.498 -4.344,-0.355 -4.352,-7.572 -0.003,-2.513 0.07,-1.599 -0.955,-3.133 -3.647,-0.268 -8.18,-1.277 -11.351,0.305z"/>
  <path class="fil15" d="M49.73 24.349c-0.021,0.077 -0.075,0.109 -0.092,0.221l-3.957 4.24c-1.762,1.695 -1.439,1.752 -1.154,4.457 3.062,-0.028 1.086,-2.278 4.974,-3.762 2.719,-1.037 3.888,-2.928 9.268,-3.591 1.123,-0.138 2.28,0.076 3.365,-0.109 1.212,-0.207 1.362,-0.685 3.094,-0.497 1.114,0.121 1.893,0.579 3.015,0.265l0.231 -0.112c0.046,-0.012 -0.16,-0.113 0.26,-0.009 3.779,0.934 6.026,0.844 7.593,1.35 3.816,1.233 0.627,-0.593 3.667,1.618 0.535,0.39 0.642,0.341 1.197,0.705 1.732,1.136 1.403,3.018 3.059,4.133 0.412,-0.242 0.873,-0.566 1.123,-1.098 0.26,-0.555 0.252,-0.198 0.213,-1.037 -0.063,-1.378 -0.662,-1.236 -1.623,-2.55 -0.942,-1.289 -1.615,-2.584 -2.988,-3.37l-1.301 -0.603c-0.065,-0.032 -0.147,-0.072 -0.21,-0.105l-0.601 -0.345c-1.565,-0.955 -1.908,-1.438 -3.796,-2.166 -6.545,-2.528 -11.612,-1.073 -13.774,-1.17 -4.775,-0.213 -2.426,-0.672 -7.225,1.546 -1.865,0.863 -2.299,1.972 -4.338,1.989z"/>
  <path class="fil2" d="M50.176 109.104c2.356,0.004 4.242,-0.749 5.129,1.186 -0.637,1.716 -1.477,1.266 -3.248,1.922 -0.518,0.192 -1.223,0.603 -1.709,0.802 -0.608,0.248 -1.092,0.355 -1.662,0.555 -1.932,0.675 -8.827,2.473 -10.45,3.719 -1.257,0.966 -1.521,0.531 -4.323,1.71 -0.78,0.328 -0.187,0.105 -1.042,0.279 -4.456,0.905 -2.197,1.742 -5.251,1.891 0.195,-3.476 3.805,-4.356 7.11,-6.425l7.802 -3.39c1.652,-0.814 0.456,0.011 1.24,-0.919 -6.401,0.559 -26.036,11.679 -15.69,12.268 1.83,0.104 2.821,0.617 4.427,0.633 2.444,0.024 1.844,-0.626 3.668,-1.106 1.605,-0.422 2.856,0.124 4.365,-0.426 0.773,-0.281 0.577,-0.409 1.509,-0.692l5.708 -1.865c2.155,-0.597 1.872,-0.829 3.343,-1.367 1.664,-0.607 2.042,-0.046 3.73,-1.05 5.634,-3.35 5.636,-0.972 5.6,-4.466 -6.594,-0.1 -1.474,-1.003 -4.134,-3.501 -0.605,-0.568 -1.833,-0.957 -2.965,-1.009 -0.568,-0.026 -1.37,-0.004 -1.829,0.153l-1.125 0.842c-0.063,0.065 -0.138,0.169 -0.203,0.256z"/>
  <path class="fil16" d="M71.074 8.14l0.062 1.187c1.015,0.634 0.783,0.821 1.842,1.049 1.128,0.243 2.058,0.1 2.903,0.672 1.955,1.322 -0.225,1.824 4.299,2.233 2.147,0.194 1.02,-0.187 2.396,0.872 1.498,1.153 1.821,0.284 3.448,1.588 0.619,0.496 0.378,0.306 0.82,0.813l2.07 2.013c2.395,2.669 0.365,0.023 3.132,2.846 2.591,2.643 3.209,2.005 5.681,7.658 0.531,1.211 -0.139,-0.3 0.552,0.984 0.037,0.066 0.083,0.144 0.117,0.213l0.573 2.061c-0.092,1.223 -0.656,-0.852 -0.207,0.729 1.988,6.352 -0.358,5.364 3.157,7.142 0.829,-0.612 1.306,-0.699 1.903,-1.526 0.895,-1.24 0.359,-1.673 2.05,-1.839l0.045 -0.587c-0.845,-0.617 -0.123,0.543 -0.953,-0.962 -0.291,-0.526 -0.297,-0.997 -0.414,-1.666 -0.337,-0.137 0.071,0.991 -0.673,-0.643 -1.717,-3.77 -2.215,-1.165 -2.743,-6.168 -0.147,0.028 -0.655,0.091 -0.788,0.153 -0.843,0.387 -0.456,-0.082 -0.322,0.349 -0.351,-1.84 -0.633,-1.984 -2.174,-3.821 -1.803,-2.15 -0.052,-1.312 -3.143,-4.096 -0.07,-0.062 -0.271,-0.245 -0.336,-0.315 -0.866,-0.92 -0.483,-0.945 -1.913,-2.15 -2.51,-2.117 -0.664,-1.3 -3.633,-2.738l-2.621 -1.756c-0.192,-0.167 -0.782,-0.722 -0.817,-0.749 -1.595,-1.22 -6.549,-2.644 -9.082,-3.039 -3.835,-0.597 -3.997,-1.244 -5.231,-0.507z"/>
  <path class="fil17" d="M86.471 69.249c-1.686,0.485 -0.276,0.687 -1.737,0.427 -1.088,-0.194 0.267,-0.924 -1.588,0.03 -1.09,0.56 -2.185,1.24 -1.674,2.705 1.049,3.008 3.972,2.863 2.96,7.112 -0.242,1.015 -4.03,8.044 -6.066,9.417 -1.072,0.724 -2.548,1.171 -2.092,3.345 0.45,2.15 5.029,2.272 7.251,-0.401 4.232,-5.091 3.739,-6.201 4.739,-10.757 0.456,-2.075 2.318,-5.359 0.108,-8.397 -0.684,-0.94 -0.359,-0.628 -0.897,-1.618 -0.363,-0.67 -0.608,-1.029 -1.004,-1.863z"/>
  <path class="fil18" d="M50.959 87.104c-1.299,-0.101 -1.483,-0.846 -2.967,-3.697 -2.417,-4.643 0.519,-9.923 0.488,-11.618 -0.031,-1.642 -1.793,-3.057 -2.723,-3.908l-0.324 1.712c-0.33,0.059 -2.877,0.845 -3.063,0.942 -0.919,1.857 -1.591,4.949 -1.045,7.857 0.044,0.238 2.084,7.625 2.66,8.46l3.633 5.149c1.188,1.07 3.715,1.669 5.017,1.314 0.662,-0.181 0.655,-0.502 0.659,-0.49l0.272 -1.166c0.023,-0.605 -0.106,-1.096 -0.246,-1.426 -0.575,-1.347 -0.941,-0.845 -2.099,-1.489 -0.084,-0.76 -0.175,-1.175 -0.262,-1.64z"/>
  <path class="fil12" d="M43.772 110.434c-0.784,0.93 0.412,0.105 -1.24,0.919l-7.802 3.39c-3.305,2.069 -6.915,2.949 -7.11,6.425 3.054,-0.149 0.795,-0.986 5.251,-1.891 0.855,-0.174 0.262,0.049 1.042,-0.279 2.802,-1.179 3.066,-0.744 4.323,-1.71 1.623,-1.246 8.518,-3.044 10.45,-3.719 0.57,-0.2 1.054,-0.307 1.662,-0.555 0.486,-0.199 1.191,-0.61 1.709,-0.802 1.771,-0.656 2.611,-0.206 3.248,-1.922 -0.887,-1.935 -2.773,-1.182 -5.129,-1.186 -1.626,-0.099 -5.05,1.159 -6.404,1.33z"/>
  <path class="fil19" d="M58.691 35.496l-6.214 1.726c-0.257,0.116 -1.027,0.534 -1.264,0.631 -3.062,1.25 -2.236,1.483 -4.209,1.45 0.14,-5.966 9.073,-8.831 12.318,-7.836 -0.224,-1.033 -0.012,-0.584 -0.377,-1.199 -1.79,-0.157 -4.087,0.321 -5.93,0.835 -1.923,0.536 -1.681,1.296 -2.919,1.825 -1.676,0.717 -1.163,-0.356 -1.154,-0.385 0.695,-2.167 7.063,-4.15 8.967,-4.727 2.726,-0.825 1.876,-0.387 4.281,0.046 -1.307,-2.842 -3.959,-0.939 -6.192,-0.477 -1.703,0.353 -4.137,1.838 -5.634,2.551 -2.274,1.083 -2.465,2.595 -4.065,4.492 -1.774,2.105 -0.828,3.107 -3.34,4.978 -2.556,1.902 0.034,2.172 -2.564,2.047 -3.464,-0.167 0.746,-8.311 1.138,-8.921 3.619,-5.631 0.625,-2.22 4.779,-5.931 1.854,-1.656 2.12,-2.288 3.418,-2.252 0.215,-0.644 1.982,-2.132 2.643,-2.486 1.16,-0.623 2.299,-0.696 3.182,-1.714 -3.588,0.131 -9.276,5.036 -11.944,7.885 -3.827,4.086 -3.639,6.798 -5.35,9.708 -0.64,1.087 -0.494,2.746 -0.417,4.397 3.636,1.985 5.363,0.288 6.61,-2.907l0.271 0.459c0.038,0.06 0.204,0.35 0.26,0.424 0.268,0.353 -0.352,0.145 0.659,0.613 1.964,0.909 2.212,-1.251 6.108,-1.375 0.903,-2.942 3.91,-1.614 5.965,-2.859 1.308,-0.792 0.39,0.123 0.974,-0.998z"/>
  <path class="fil2" d="M83.024 40.899c0.806,-0.718 1.218,-2.599 -0.364,-4.426 -2.842,-3.279 -7.577,-6.606 -12.186,-6.51 -0.692,1.061 -1.54,3.748 -0.529,5.334 0.602,0.946 4.245,1.607 6.712,2.741l2.965 1.762c1.059,0.576 0.782,0.78 2.084,1.092 0.073,0.017 0.681,0.103 0.719,0.103 0.635,0.013 0.19,0.113 0.599,-0.096z"/>
  <path class="fil20" d="M103.809 91.332l-2.638 0.838c1.181,1.808 0.718,1.045 1.64,1.736 0.729,0.547 0.141,-0.174 0.594,0.654 0.271,0.493 0.409,2.134 2.449,2.295 4.751,0.746 2.91,-0.975 5.208,-1.008 1.958,-0.028 0.073,-0.04 1.493,0.46l0.983 -1.132c-0.632,-0.823 -0.27,-0.88 -0.932,-0.679l1.895 -0.292 0.803 -0.636c-0.886,-0.444 -2.55,-0.893 -1.89,-2.027 -1.551,-0.17 -1.857,-0.407 -2.467,-1.392l-0.918 -1.427c-0.152,-0.151 -0.025,0.184 -0.376,-0.361 -0.052,1.276 -1.091,1.254 -2.523,1.693 -1.344,0.413 -1.396,0.856 -3.321,1.278z"/>
  <path class="fil12" d="M58.691 35.496c1.306,-1.107 0.78,-2.537 0.631,-4.029 -3.245,-0.995 -12.178,1.87 -12.318,7.836 1.973,0.033 1.147,-0.2 4.209,-1.45 0.237,-0.097 1.007,-0.515 1.264,-0.631l6.214 -1.726z"/>
  <path class="fil20" d="M16.693 94.431c0.318,0.058 2.506,1.485 3.075,1.801 1.333,0.741 2.784,0.778 4.218,1.484 1.169,-0.391 0.185,-0.126 0.831,-0.462 0.934,-0.485 -0.442,-0.172 1.021,-0.41 -0.688,-1.925 0.517,-0.813 -0.06,-2.711 1.108,0.34 0.625,0.228 1.525,-0.096 0.136,-1.807 0.486,-1.747 -0.932,-2.552 -0.397,-0.225 -4.957,-1.915 -6.619,-0.956 -1.124,0.65 -0.574,0.801 -0.853,1.447 -0.012,0.029 -0.055,0.105 -0.07,0.132l-0.755 1.151c-0.046,0.068 -0.086,0.154 -0.136,0.221 -0.05,0.067 -0.102,0.145 -0.157,0.207l-1.088 0.744z"/>
  <path class="fil4" d="M109.653 88.361c0.351,0.545 0.224,0.21 0.376,0.361l0.918 1.427c0.61,0.985 0.916,1.222 2.467,1.392 -0.66,1.134 1.004,1.583 1.89,2.027l-0.803 0.636c1.673,0.832 2.682,0.072 3.696,-0.724l0.053 -3.52c1.262,0.154 0.875,-0.069 1.684,0.699 -0.414,-1.012 -1.093,-1.023 -2.064,-1.997 -0.902,-0.905 -1.449,-1.062 -2.589,-1.826 -2.8,-1.878 -4.083,-0.115 -5.628,1.525z"/>
  <path class="fil14" d="M81.81 38.175c-0.255,-1.577 -0.023,-0.278 -0.303,-0.826 -0.227,-0.446 -0.171,-0.29 -0.507,-0.788 -0.54,-0.8 -0.296,-0.558 -0.929,-1.282 -1.129,-1.292 -3.856,-2.818 -5.676,-3.201l-2.822 -0.655c-2.289,0.025 -0.943,3.241 -0.438,3.63l6.664 2.16c1.69,0.662 1.499,0.975 4.011,0.962z"/>
  <path class="fil21" d="M28.471 93.886c-0.307,0.987 -0.824,1.679 -0.977,2.297 -0.262,1.062 0.076,1.958 0.133,3.176l0.165 1.447c1.838,0.054 2.509,0.304 3.697,-0.678 0.905,-0.749 1.459,-1.773 1.73,-3.09 -0.554,-1.369 -0.235,-0.27 -0.532,-0.794 -0.444,-0.785 -0.209,-5.781 -4.216,-2.358z"/>
  <path class="fil4" d="M35.724 88.826c1.343,1.133 3.063,2.892 5.615,1.652 0.276,-0.436 0.184,0.012 0.264,-0.741 0.176,-1.656 -0.789,0.208 -1.264,-4.991l-3.121 0.125 -0.926 0.192c-0.34,1.769 -0.428,0.635 -0.592,1.733 -0.187,1.254 0.225,1.096 0.024,2.03z"/>
  <path class="fil13" d="M98.978 98.704c1.844,0.046 2.988,0.511 3.366,-1.031 0.369,-1.508 -0.296,-2.444 -1.056,-3.165 -0.995,-0.945 -2.04,-1.05 -2.517,0.362 -0.486,1.44 0.026,2.672 0.207,3.834z"/>
 </g>
</svg>
