<?xml version="1.0" encoding="UTF-8"?>
<!DOCTYPE svg PUBLIC "-//W3C//DTD SVG 1.0//EN" "http://www.w3.org/TR/2001/REC-SVG-20010904/DTD/svg10.dtd">
<!-- Creator: CorelDRAW 2018 (64-Bit Evaluation Version) -->
<svg xmlns="http://www.w3.org/2000/svg" xml:space="preserve" width="512px" height="512px" version="1.0" style="shape-rendering:geometricPrecision; text-rendering:geometricPrecision; image-rendering:optimizeQuality; fill-rule:evenodd; clip-rule:evenodd"
viewBox="0 0 512 512"
 xmlns:xlink="http://www.w3.org/1999/xlink"
 data-name="Layer 1">
 <defs>
  <style type="text/css">
   <![CDATA[
    .str1 {stroke:#FEFEFE;stroke-width:16.67;stroke-miterlimit:2.61313}
    .str0 {stroke:#ED3237;stroke-width:33.33;stroke-miterlimit:2.61313}
    .fil0 {fill:#FEFEFE}
    .fil1 {fill:#ED3237;fill-rule:nonzero}
   ]]>
  </style>
 </defs>
 <g id="Layer_x0020_1">
  <metadata id="CorelCorpID_0Corel-Layer"/>
  <path class="fil0 str0" d="M46.77 104.04c0.18,0.97 0.33,1.91 0.4,2.89 0,2.02 0,4.08 0,6.1 0,3.54 0,7.12 0.36,10.73 0,5.81 0.69,11.56 1.05,17.37l0.54 8.67c0,3.18 0.4,6.29 0.69,9.47 0.29,3.14 0.68,6.46 1.04,9.64l0.91 7.55c0.39,3.32 0.68,6.57 1.15,9.83 0.58,4.37 1.19,8.81 1.95,13.22 1.05,6.1 1.95,11.16 2.93,15.93l1.01 4.59c1.48,7.55 3.07,15.1 4.91,22.07 5.28,21.24 12.29,42.19 20.88,62.35 14.31,33.63 33.45,65.12 56.61,93.37 15.53,18.93 32.94,36.49 51.76,52.2 18.82,15.71 38.91,29.95 59.93,42.48l0.04 -0.03 7.55 -4.84c14.91,-9.22 29.4,-19.37 43.2,-30.2 13,-10.3 25.47,-21.46 37.13,-33.27 26.08,-26.41 48.19,-56.53 65.6,-89.26 13.37,-25.04 24.03,-51.62 31.61,-78.97 3.83,-14.19 7.55,-28.46 9.57,-39.34 1.37,-6.35 2.28,-12.71 3.25,-19.36l0.58 -3.93c0.98,-6.33 1.91,-13.12 2.64,-20.31 0.76,-7.19 1.44,-13.72 1.98,-20.08 0.51,-6.36 0.91,-11.49 1.12,-16.08 0,-6.07 0.55,-12.17 0.76,-18.27l0.47 -10.95c-0.03,-0.43 -0.07,-0.87 -0.07,-1.3 0,-0.44 0.04,-0.87 0.07,-1.27l0 -24.99 -2.42 0 -5.6 -1.09c-10.26,-1.88 -20.84,-3.83 -31.32,-6.17 -21.6,-4.7 -44.03,-10.41 -66.61,-17.12 -33.81,-10.01 -67.55,-21.9 -100.24,-35.3l-4.44 1.81c-7.04,2.89 -14.13,5.74 -21.24,8.45 -33.63,12.83 -68.2,23.88 -102.99,32.98 -22.69,5.96 -43.13,10.58 -62.17,14.05l-15.1 2.64 0.51 23.73 0 0.01z"/>
  <path class="fil1 str1" d="M514.78 378.54l-265.87 -169.85 14.51 -26.77 -294.89 -116.31 236.85 223.39 14.51 -26.77 265.87 169.85 29.02 -53.54zm-132.94 -84.93m-125.67 -98.3m-140.19 -71.55m-29.02 53.54m125.68 98.31m140.19 71.55m147.44 58.15"/>
 </g>
 <g id="Layer_x0020_1_0">
  <metadata id="CorelCorpID_1Corel-Layer"/>
 </g>
</svg>
